<svg xmlns="http://www.w3.org/2000/svg" width="25pt" height="32" viewBox="0 0 25 24"><path d="M3.223 0h18.656c1.773 0 3.223 1.258 3.223 3.094v17.91c0 1.836-1.45 3.094-3.223 3.094H3.223C1.449 24.098 0 22.84 0 21.004V3.094C0 1.258 1.45 0 3.223 0zm15.062 2.676c-.62 0-1.129.488-1.129 1.086v2.597c0 .598.508 1.086 1.13 1.086h2.835c.625 0 1.133-.488 1.133-1.086V3.762c0-.598-.508-1.086-1.133-1.086zm3.98 7.515h-2.21c.21.657.324 1.348.324 2.067 0 4.008-3.496 7.258-7.805 7.258-4.308 0-7.8-3.25-7.8-7.258 0-.719.113-1.41.32-2.067H2.789v10.18c0 .527.45.957 1 .957h17.477c.55 0 1-.43 1-.957zm-9.69-2.882c-2.786 0-5.04 2.097-5.04 4.687 0 2.59 2.254 4.691 5.04 4.691 2.784 0 5.042-2.101 5.042-4.69 0-2.59-2.258-4.688-5.043-4.688zm0 0"/></svg>