<?xml version="1.0" encoding="UTF-8"?>
<svg xmlns="http://www.w3.org/2000/svg" xmlns:xlink="http://www.w3.org/1999/xlink" width="25pt" height="24pt" viewBox="0 0 25 24" version="1.1">
<g id="surface1">
<path style=" stroke:none;fill-rule:nonzero;fill:rgb(0%,0%,0%);fill-opacity:1;" d="M 3.222656 0 L 21.878906 0 C 23.652344 0 25.101562 1.257812 25.101562 3.09375 L 25.101562 21.003906 C 25.101562 22.839844 23.652344 24.097656 21.878906 24.097656 L 3.222656 24.097656 C 1.449219 24.097656 0 22.839844 0 21.003906 L 0 3.09375 C 0 1.257812 1.449219 0 3.222656 0 Z M 18.285156 2.675781 C 17.664062 2.675781 17.15625 3.164062 17.15625 3.761719 L 17.15625 6.359375 C 17.15625 6.957031 17.664062 7.445312 18.285156 7.445312 L 21.121094 7.445312 C 21.746094 7.445312 22.253906 6.957031 22.253906 6.359375 L 22.253906 3.761719 C 22.253906 3.164062 21.746094 2.675781 21.121094 2.675781 Z M 22.265625 10.191406 L 20.054688 10.191406 C 20.265625 10.847656 20.378906 11.539062 20.378906 12.257812 C 20.378906 16.265625 16.882812 19.515625 12.574219 19.515625 C 8.265625 19.515625 4.773438 16.265625 4.773438 12.257812 C 4.773438 11.539062 4.886719 10.847656 5.09375 10.191406 L 2.789062 10.191406 L 2.789062 20.371094 C 2.789062 20.898438 3.238281 21.328125 3.789062 21.328125 L 21.265625 21.328125 C 21.816406 21.328125 22.265625 20.898438 22.265625 20.371094 Z M 12.574219 7.308594 C 9.789062 7.308594 7.535156 9.40625 7.535156 11.996094 C 7.535156 14.585938 9.789062 16.6875 12.574219 16.6875 C 15.359375 16.6875 17.617188 14.585938 17.617188 11.996094 C 17.617188 9.40625 15.359375 7.308594 12.574219 7.308594 Z M 12.574219 7.308594 "/>
</g>
</svg>
